<!-- Generated by IcoMoon.io -->
<svg version="1.1" xmlns="http://www.w3.org/2000/svg" width="640" height="640" viewBox="0 0 640 640">
<g id="icomoon-ignore">
</g>
<path d="M416 576h-192v32c0 17.673-14.327 32-32 32v0h-32c-17.673 0-32-14.327-32-32v0-32c-35.346 0-64-28.654-64-64v0-448c0-35.2 28.8-64 64-64h384c35.346 0 64 28.654 64 64v0 448c0 35.346-28.654 64-64 64v0 32c0 17.673-14.327 32-32 32v0h-32c-17.673 0-32-14.327-32-32v0-32zM128 160v192h160v-192h-160zM352 160v192h160v-192h-160zM160 64v32h320v-32h-320zM176 512c26.509 0 48-21.491 48-48s-21.491-48-48-48v0c-26.509 0-48 21.491-48 48s21.491 48 48 48v0zM464 512c26.509 0 48-21.491 48-48s-21.491-48-48-48v0c-26.509 0-48 21.491-48 48s21.491 48 48 48v0z"></path>
</svg>
